<?xml version="1.0" encoding="utf-8"?>
<!-- Generator: Adobe Illustrator 25.4.2, SVG Export Plug-In . SVG Version: 6.00 Build 0)  -->
<svg version="1.1" id="Layer_3" xmlns="http://www.w3.org/2000/svg" xmlns:xlink="http://www.w3.org/1999/xlink" x="0px" y="0px"
	 viewBox="0 0 841.89 595.28" style="enable-background:new 0 0 841.89 595.28;" xml:space="preserve">
<style type="text/css">
	.st0{fill:#F17D84;}
	.st1{fill:#66B7AF;}
	.st2{fill:#FCDDD1;}
	.st3{fill:#FCDCD2;}
	.st4{fill:#026D77;}
	.st5{fill:none;}
</style>
<g>
	<g>
		<path class="st0" d="M109.35,439.6c-0.33,0.27-0.52,0.77-0.58,1.49l-3.38-0.04c0-1.8,0.55-3.18,1.67-4.14
			c0.9-0.81,2.22-1.21,3.96-1.21h10.12c1.74,0,3.32,0.36,4.75,1.08c1.42,0.72,2.54,1.71,3.35,2.97c0.81,1.26,1.21,2.7,1.21,4.32
			c0,1.44-0.31,2.69-0.94,3.74s-1.52,1.84-2.66,2.38c-0.36,0.18-0.89,0.35-1.57,0.5c0.39,0,0.91,0.11,1.55,0.31
			c0.65,0.21,1.3,0.5,1.96,0.86c0.9,0.48,1.63,1.29,2.18,2.43c0.55,1.14,0.83,2.58,0.83,4.32c0,2.97-1.1,5.2-3.29,6.68
			c-2.19,1.48-5.1,2.23-8.73,2.23h-1.48c-1.59,0-3.1-0.08-4.54-0.23l-2.79-0.31V439.2C110.19,439.2,109.65,439.33,109.35,439.6z
			 M126.07,462.78c1.42-0.87,2.14-2.28,2.14-4.23c0-1.89-0.65-3.38-1.94-4.48c-1.29-1.09-2.91-1.64-4.86-1.64h-4.23l0.04-3.33
			l3.87-0.04c1.74,0,3.13-0.45,4.19-1.35c1.02-0.9,1.53-2.12,1.53-3.65s-0.47-2.74-1.4-3.62c-0.93-0.88-2.16-1.33-3.69-1.33h-7.06
			v24.75c2.07,0.15,3.84,0.23,5.31,0.23C122.61,464.08,124.64,463.65,126.07,462.78z"/>
		<path class="st0" d="M141.13,466.04c-1.57-0.97-2.77-2.29-3.58-3.96s-1.22-3.53-1.22-5.6c0-2.04,0.39-4.02,1.17-5.94
			c0.78-1.92,1.95-3.51,3.51-4.77c1.56-1.26,3.48-1.89,5.76-1.89c1.5,0,2.89,0.29,4.18,0.88c1.29,0.58,2.32,1.43,3.08,2.52
			c0.77,1.1,1.15,2.36,1.15,3.8c0,2.31-0.94,4.12-2.83,5.44c-1.89,1.32-4.35,1.95-7.38,1.89l-4.68-0.09
			c0.33,1.86,1.06,3.29,2.18,4.3c1.12,1.01,2.62,1.51,4.48,1.51c2.43,0,4.74-0.81,6.93-2.43l2.02,2.57
			c-2.85,2.16-5.88,3.24-9.09,3.24C144.6,467.5,142.7,467.02,141.13,466.04z M149.75,454.14c1.17-0.69,1.75-1.72,1.75-3.1
			c0-1.23-0.44-2.17-1.33-2.84c-0.89-0.66-1.94-0.99-3.17-0.99c-1.38,0-2.58,0.41-3.6,1.24c-1.02,0.83-1.8,1.85-2.34,3.08
			c-0.54,1.23-0.85,2.45-0.94,3.65h4.86C146.99,455.17,148.58,454.83,149.75,454.14z"/>
		<path class="st0" d="M161.93,464.35c-1.92-1.98-2.88-4.72-2.88-8.23c0-2.4,0.44-4.54,1.33-6.41c0.88-1.87,2.12-3.33,3.71-4.37
			c1.59-1.03,3.42-1.55,5.49-1.55c1.65,0,3.14,0.34,4.48,1.01c1.33,0.68,2.35,1.6,3.06,2.77c0.7,1.17,1,2.46,0.88,3.87h-3.6
			c0.12-1.23-0.26-2.26-1.12-3.08c-0.87-0.83-2.04-1.24-3.51-1.24c-1.38,0-2.6,0.38-3.67,1.12c-1.07,0.75-1.89,1.82-2.48,3.19
			c-0.58,1.38-0.88,2.96-0.88,4.73c0,2.52,0.62,4.46,1.87,5.8c1.24,1.35,3.02,2.03,5.33,2.03c1.02,0,2.05-0.18,3.1-0.54
			c1.05-0.36,2.37-0.97,3.96-1.85l1.71,2.79c-2.64,1.95-5.56,2.92-8.77,2.92C166.52,467.32,163.85,466.33,161.93,464.35z"/>
		<path class="st0" d="M185.98,465.91c-1.46-1.06-2.56-2.5-3.33-4.3c-0.76-1.8-1.15-3.75-1.15-5.85c0-2.28,0.43-4.32,1.31-6.12
			c0.87-1.8,2.15-3.22,3.85-4.28c1.69-1.05,3.73-1.57,6.1-1.57c0.69,0,1.55,0.04,2.59,0.11c1.03,0.08,1.91,0.17,2.63,0.29h3.02
			v18.68c0,0.42,0.1,0.74,0.29,0.97c0.19,0.23,0.49,0.34,0.88,0.34c0.51,0,0.91-0.25,1.21-0.76l2.52,1.66
			c-0.39,0.75-0.95,1.34-1.69,1.78c-0.74,0.43-1.52,0.65-2.36,0.65c-1.11,0-2.06-0.32-2.86-0.97c-0.8-0.64-1.22-1.4-1.28-2.27v0.04
			c-0.51,0.99-1.37,1.77-2.56,2.34c-1.2,0.57-2.52,0.86-3.96,0.86C189.17,467.5,187.43,466.97,185.98,465.91z M194.64,463.23
			c0.93-0.63,1.63-1.42,2.12-2.38c0.27-0.51,0.43-0.95,0.47-1.3c0.04-0.36,0.07-0.77,0.07-1.22v-10.89l-1.89-0.13
			c-1.5-0.12-2.51-0.18-3.02-0.18c-2.28,0-4.05,0.81-5.31,2.43c-1.26,1.62-1.89,3.67-1.89,6.17c0,2.31,0.55,4.3,1.66,5.96
			s2.64,2.5,4.59,2.5C192.65,464.17,193.71,463.86,194.64,463.23z"/>
		<path class="st0" d="M221.03,466.6c-1.35,0.54-2.75,0.81-4.19,0.81c-2.28,0-4.13-0.58-5.54-1.73c-1.41-1.16-2.15-2.87-2.21-5.15
			v-9.18c0-2.34-0.63-4.05-1.89-5.13l2.48-2.29c0.75,0.42,1.45,1.17,2.09,2.25c0.64,1.08,0.98,2.24,1.01,3.46v9.72
			c0,1.53,0.33,2.7,0.99,3.51c0.66,0.81,1.75,1.21,3.28,1.21c1.35,0,2.49-0.32,3.42-0.95c0.93-0.63,1.95-1.68,3.06-3.15l0.04-15.43
			h3.69v18.32c0,0.42,0.1,0.74,0.29,0.97c0.19,0.23,0.49,0.34,0.88,0.34c0.51,0,0.91-0.25,1.21-0.76l2.52,1.66
			c-0.39,0.75-0.95,1.34-1.69,1.78c-0.74,0.43-1.52,0.65-2.36,0.65c-1.11,0-2.06-0.32-2.86-0.97c-0.8-0.64-1.22-1.4-1.28-2.27v0.04
			C223.37,465.3,222.38,466.06,221.03,466.6z"/>
		<path class="st0" d="M234.66,463.72l2.11-2.47c1.14,0.99,2.22,1.72,3.24,2.18c1.02,0.46,2.1,0.7,3.24,0.7
			c1.47,0,2.63-0.32,3.49-0.97c0.85-0.64,1.28-1.54,1.28-2.68c0-0.69-0.17-1.24-0.52-1.67c-0.35-0.42-0.84-0.79-1.48-1.1
			c-0.65-0.31-1.72-0.77-3.22-1.37c-1.65-0.66-2.93-1.24-3.85-1.73c-0.92-0.5-1.64-1.12-2.18-1.89c-0.54-0.77-0.81-1.72-0.81-2.86
			c0-1.86,0.66-3.36,1.98-4.5c1.32-1.14,3.03-1.71,5.13-1.71c1.23,0,2.47,0.2,3.71,0.61c1.24,0.41,2.23,0.92,2.95,1.55l-1.57,2.66
			c-1.35-0.99-2.93-1.49-4.73-1.49c-1.14,0-2.05,0.23-2.72,0.7c-0.67,0.46-1.01,1.1-1.01,1.91c0,0.84,0.34,1.49,1.01,1.96
			c0.68,0.47,1.84,1.03,3.49,1.69c1.86,0.75,3.31,1.43,4.36,2.03c1.05,0.6,1.85,1.3,2.39,2.09s0.81,1.79,0.81,2.99
			c0,2.13-0.78,3.86-2.34,5.17c-1.56,1.32-3.57,1.98-6.03,1.98C240.09,467.5,237.18,466.25,234.66,463.72z"/>
		<path class="st0" d="M259.8,466.04c-1.57-0.97-2.77-2.29-3.58-3.96c-0.81-1.67-1.22-3.53-1.22-5.6c0-2.04,0.39-4.02,1.17-5.94
			c0.78-1.92,1.95-3.51,3.51-4.77c1.56-1.26,3.48-1.89,5.76-1.89c1.5,0,2.89,0.29,4.18,0.88c1.29,0.58,2.32,1.43,3.08,2.52
			c0.77,1.1,1.15,2.36,1.15,3.8c0,2.31-0.94,4.12-2.83,5.44c-1.89,1.32-4.35,1.95-7.38,1.89l-4.68-0.09
			c0.33,1.86,1.06,3.29,2.18,4.3c1.12,1.01,2.62,1.51,4.48,1.51c2.43,0,4.74-0.81,6.93-2.43l2.02,2.57
			c-2.85,2.16-5.88,3.24-9.09,3.24C263.27,467.5,261.37,467.02,259.8,466.04z M268.41,454.14c1.17-0.69,1.75-1.72,1.75-3.1
			c0-1.23-0.44-2.17-1.33-2.84c-0.89-0.66-1.94-0.99-3.17-0.99c-1.38,0-2.58,0.41-3.6,1.24c-1.02,0.83-1.8,1.85-2.34,3.08
			c-0.54,1.23-0.85,2.45-0.94,3.65h4.86C265.65,455.17,267.24,454.83,268.41,454.14z"/>
		<path class="st0" d="M294.56,436.18h3.69v30.92h-3.69V436.18z"/>
		<path class="st0" d="M321.11,436.18h3.69v27.5h15.17v3.42h-18.85V436.18z"/>
		<path class="st0" d="M348.03,465.97c-1.7-1.02-3.02-2.42-3.98-4.21c-0.96-1.79-1.44-3.8-1.44-6.05s0.49-4.28,1.46-6.1
			c0.97-1.81,2.31-3.24,4-4.28c1.69-1.03,3.61-1.55,5.74-1.55c2.13,0,4.04,0.51,5.74,1.53c1.69,1.02,3.02,2.44,3.98,4.25
			c0.96,1.82,1.44,3.85,1.44,6.1s-0.48,4.27-1.44,6.08c-0.96,1.8-2.29,3.21-4,4.23c-1.71,1.02-3.63,1.53-5.76,1.53
			C351.64,467.5,349.73,467,348.03,465.97z M359.24,461.83c1.36-1.56,2.05-3.62,2.05-6.17c0-2.58-0.68-4.65-2.05-6.21
			c-1.37-1.56-3.17-2.34-5.42-2.34c-1.47,0-2.78,0.36-3.92,1.08c-1.14,0.72-2.03,1.73-2.66,3.02s-0.94,2.78-0.94,4.46
			c0,2.55,0.69,4.61,2.07,6.17s3.2,2.34,5.45,2.34S357.87,463.39,359.24,461.83z"/>
		<path class="st0" d="M367.63,447.14c-0.48-0.46-0.96-0.76-1.44-0.88l1.98-3.01c1.86,1.05,3.25,2.82,4.19,5.31l4.95,13.09
			l6.34-17.46h3.69l-8.37,22.91h-3.29l-6.98-18.45C368.47,448.11,368.11,447.61,367.63,447.14z"/>
		<path class="st0" d="M393.6,466.04c-1.58-0.97-2.77-2.29-3.58-3.96c-0.81-1.67-1.21-3.53-1.21-5.6c0-2.04,0.39-4.02,1.17-5.94
			s1.95-3.51,3.51-4.77c1.56-1.26,3.48-1.89,5.76-1.89c1.5,0,2.89,0.29,4.18,0.88s2.32,1.43,3.08,2.52c0.76,1.1,1.15,2.36,1.15,3.8
			c0,2.31-0.95,4.12-2.83,5.44c-1.89,1.32-4.35,1.95-7.38,1.89l-4.68-0.09c0.33,1.86,1.06,3.29,2.18,4.3
			c1.12,1.01,2.62,1.51,4.48,1.51c2.43,0,4.74-0.81,6.93-2.43l2.03,2.57c-2.85,2.16-5.88,3.24-9.09,3.24
			C397.07,467.5,395.18,467.02,393.6,466.04z M402.22,454.14c1.17-0.69,1.75-1.72,1.75-3.1c0-1.23-0.44-2.17-1.33-2.84
			c-0.89-0.66-1.94-0.99-3.17-0.99c-1.38,0-2.58,0.41-3.6,1.24c-1.02,0.83-1.8,1.85-2.34,3.08c-0.54,1.23-0.86,2.45-0.95,3.65h4.86
			C399.46,455.17,401.05,454.83,402.22,454.14z"/>
		<path class="st0" d="M428.63,439.33c-0.15,0-0.31,0.04-0.5,0.13c-0.18,0.15-0.31,0.3-0.4,0.45l-2.83-1.49
			c0.36-0.87,0.97-1.56,1.84-2.07c0.72-0.45,1.47-0.67,2.25-0.67c0.72,0,1.41,0.21,2.07,0.63c0.66,0.42,1.2,1.04,1.62,1.85
			l6.26,11.56l7.42-13.59h4.23l-9.76,17.5l0.04,13.46h-3.64l-0.14-13.37l-7.51-13.72C429.25,439.56,428.93,439.33,428.63,439.33z"/>
		<path class="st0" d="M455.96,465.97c-1.7-1.02-3.02-2.42-3.98-4.21c-0.96-1.79-1.44-3.8-1.44-6.05s0.49-4.28,1.46-6.1
			c0.97-1.81,2.31-3.24,4-4.28c1.69-1.03,3.61-1.55,5.74-1.55c2.13,0,4.04,0.51,5.74,1.53c1.69,1.02,3.02,2.44,3.98,4.25
			c0.96,1.82,1.44,3.85,1.44,6.1s-0.48,4.27-1.44,6.08c-0.96,1.8-2.29,3.21-4,4.23c-1.71,1.02-3.63,1.53-5.76,1.53
			C459.56,467.5,457.65,467,455.96,465.97z M467.16,461.83c1.36-1.56,2.05-3.62,2.05-6.17c0-2.58-0.68-4.65-2.05-6.21
			c-1.37-1.56-3.17-2.34-5.42-2.34c-1.47,0-2.78,0.36-3.92,1.08c-1.14,0.72-2.03,1.73-2.66,3.02s-0.94,2.78-0.94,4.46
			c0,2.55,0.69,4.61,2.07,6.17s3.2,2.34,5.45,2.34S465.8,463.39,467.16,461.83z"/>
		<path class="st0" d="M489.66,466.6c-1.35,0.54-2.75,0.81-4.18,0.81c-2.28,0-4.12-0.58-5.54-1.73s-2.15-2.87-2.21-5.15v-9.18
			c0-2.34-0.63-4.05-1.89-5.13l2.47-2.29c0.75,0.42,1.45,1.17,2.09,2.25c0.64,1.08,0.98,2.24,1.01,3.46v9.72
			c0,1.53,0.33,2.7,0.99,3.51c0.66,0.81,1.76,1.21,3.29,1.21c1.35,0,2.49-0.32,3.42-0.95s1.95-1.68,3.06-3.15l0.04-15.43h3.69v18.32
			c0,0.42,0.1,0.74,0.29,0.97c0.19,0.23,0.49,0.34,0.88,0.34c0.51,0,0.92-0.25,1.22-0.76l2.52,1.66c-0.39,0.75-0.95,1.34-1.69,1.78
			s-1.52,0.65-2.36,0.65c-1.11,0-2.06-0.32-2.86-0.97c-0.79-0.64-1.22-1.4-1.28-2.27v0.04C492,465.3,491.01,466.06,489.66,466.6z"/>
	</g>
	<g>
		<g>
			<path class="st1" d="M169.34,377.87l-1.31-6.88c158.38-30.21,193.52-137.54,227.5-241.35l2.03-6.19l6.65,2.18l-2.03,6.19
				c-17.06,52.1-34.69,105.96-68.27,150.5C295.89,332.74,242.06,364,169.34,377.87z"/>
		</g>
		<g>
			<g>
				<path class="st0" d="M385.56,96.49c-13.02,42.16,38.16,54.04,43.17,8.88C411.76,99.63,385.56,96.49,385.56,96.49z"/>
			</g>
			<g>
				
					<ellipse transform="matrix(0.2188 -0.9758 0.9758 0.2188 219.8531 475.5961)" class="st0" cx="406.97" cy="100.49" rx="10.38" ry="22.3"/>
			</g>
			<g>
				<g>
					<path class="st2" d="M414.7,112.47c-3.05,0-6.4-0.37-9.88-1.15c-12.47-2.8-21.19-9.65-19.86-15.6
						c1.34-5.95,12.15-8.42,24.62-5.62c12.47,2.8,21.19,9.65,19.86,15.6l0,0C428.48,109.99,422.59,112.47,414.7,112.47z
						 M399.74,89.95c-7.38,0-12.97,2.2-13.82,5.99c-1.2,5.32,7.38,11.79,19.11,14.43c11.73,2.63,22.25,0.45,23.45-4.87l0,0
						c1.2-5.32-7.38-11.79-19.11-14.43C406,90.31,402.72,89.95,399.74,89.95z"/>
				</g>
			</g>
			<g>
				<g>
					<path class="st3" d="M413.35,106.6c-3.14,0-7.16-0.89-11.7-3.02c-4.58-2.15-7.07-5.58-6.34-8.73
						c0.78-3.34,4.87-5.33,10.96-5.33v0.96c-5.6,0-9.33,1.71-10,4.58c-0.63,2.7,1.65,5.71,5.8,7.66c8.25,3.87,15.03,3.58,16.82,1.06
						c0.97-1.37,0.24-3.38-2.01-5.52c-4.62-2.78-8.45-3.09-9.71-2.43c-0.35,0.19-0.39,0.39-0.4,0.53c-0.01,0.62,0.91,1.83,3.53,3.38
						l-0.5,0.82c-2.65-1.55-4.04-3.01-4.01-4.22c0.01-0.56,0.34-1.04,0.91-1.35c1.71-0.91,6.05-0.35,10.73,2.48l0.08,0.06
						c2.66,2.51,3.46,4.99,2.17,6.8C418.7,105.73,416.46,106.6,413.35,106.6z"/>
				</g>
			</g>
		</g>
		<g>
			<path class="st4" d="M285.07,394.23c-11.1-2.54-59.44-15.49-101.43-25.12c-1.84,4.69-3.73,9.16-5.67,13.37
				C217.04,388.73,270.39,397.56,285.07,394.23z"/>
		</g>
		<g>
			<path class="st4" d="M177.97,382.49c1.94-4.21,3.82-8.68,5.67-13.37c-6.16-1.41-12.25-2.75-18.15-3.97
				c-2.7,5.2-5.57,9.94-8.66,14.13C163.23,380.17,170.39,381.27,177.97,382.49z"/>
		</g>
		<g>
			<path class="st5" d="M146.34,389.34c4.08-3.47,8.62-7.52,10.49-10.06c-4.84-0.68-12.96-1.33-19.85-1.79"/>
		</g>
		<g>
			<path class="st4" d="M156.83,379.27c6.4,0.89,13.56,2,21.14,3.21c-5.87,12.76-21.26,33.13-28.29,40.3
				c-2.22-9.64-4.01-19.71-8.84-28.03c2.75-1.98,4.74-4.03,6.91-5.85L156.83,379.27l-9.07,9.63"/>
		</g>
		<g>
			<path class="st4" d="M156.83,379.27"/>
		</g>
		<g>
			<path class="st4" d="M139.27,377.11c4.96,0.2,9.49,0.56,17.55,2.17c3.09-4.19,5.96-8.93,8.66-14.13
				c-21.32-4.4-42.46-7.35-60.49-6.6c9.15,4.79,16.82,10.53,23.65,18.1"/>
		</g>
		<g>
			<path class="st4" d="M134.65,377.06"/>
		</g>
		<g>
			<path class="st4" d="M266.83,110.57c62.57-29.58,116.78,87.53,18.88,139.39C320.25,224.55,350.89,108.94,266.83,110.57z"/>
		</g>
		<g>
			<path class="st4" d="M285.04,250.18c60.58-11.26,92.33,40.79,90.54,73.6c-1.86,34.3-27.25,79.58-89.51,70.45
				c31-4.66,62.36-27.34,63.96-70.45C350.37,290.58,327.75,256.59,285.04,250.18z"/>
		</g>
		<g>
			<path class="st1" d="M380.06,196.46c8.4,9.74,15.2,8.1,20.57,8.31c-1.73-1.91-3.99-5.32-3.99-5.32s3.15,3.94,16.1,0.64
				c-1.86-2.29-3.23-5.17-3.23-5.17s12.8-0.72,14.12-12.97c-8.09-8.93-18.28-2.81-19.08-2.11c-0.35-1.98-1.04-5.94-1.04-5.94
				s-11.16,4.36-12.63,11.19c-0.2-4.56-0.86-6.43-0.86-6.43S382.63,182.25,380.06,196.46z"/>
		</g>
		<g>
			<path class="st4" d="M266.83,110.57c-59.86,13.53-63,180.69-101.34,254.58c5.9,1.22,11.99,2.56,18.15,3.97
				C217.98,281.61,237.32,117.14,266.83,110.57z"/>
		</g>
		<g>
			<path class="st4" d="M463.46,331.52c0,0.62-0.21,1.35-0.62,2.19c-17.5,40.73-34.38,61.09-50.62,61.09
				c-6.77,0-12.08-3.49-15.94-10.47c-3.23-5.73-4.84-12.24-4.84-19.53c0-8.96,2.24-19.32,6.72-31.09l25.94-67.5
				c0.42-1.46,0.62-2.71,0.62-3.75c0-4.06-2.03-6.09-6.09-6.09h-12.19c-2.08,0-3.12-0.88-3.12-2.66c0-1.88,0.94-2.81,2.81-2.81
				h41.56c3.64,0,5.47,1.82,5.47,5.47c0,0.83-0.21,1.88-0.62,3.12c-10.42,27.09-23.12,60.16-38.12,99.22
				c-3.75,10.42-5.62,17.55-5.62,21.41c0,5.52,2.34,8.28,7.03,8.28c10.21,0,24.06-18.96,41.56-56.88c0.83-1.98,1.98-2.97,3.44-2.97
				C462.57,328.55,463.46,329.54,463.46,331.52z M467.83,211.52c-0.42,5.73-2.32,10.57-5.7,14.53c-3.39,3.96-7.42,5.94-12.11,5.94
				c-4.06,0-7.37-1.72-9.92-5.16c-2.55-3.44-3.62-7.5-3.2-12.19c0.42-5.52,2.37-10.16,5.86-13.91c3.49-3.75,7.63-5.62,12.42-5.62
				c4.27,0,7.58,1.56,9.92,4.69S468.35,206.83,467.83,211.52z"/>
		</g>
		<g>
			<path class="st4" d="M561.62,186.52c-8.75,24.58-28.59,78.54-59.53,161.88c-5.73,16.04-8.59,26.62-8.59,31.72
				c0,5.52,2.03,8.28,6.09,8.28c10.62,0,25.1-18.96,43.44-56.88c0.83-1.98,2.03-2.97,3.59-2.97c1.67,0,2.5,0.99,2.5,2.97
				c0,0.62-0.21,1.35-0.62,2.19c-8.54,17.29-15.47,29.79-20.78,37.5c-10.94,15.73-21.41,23.59-31.41,23.59
				c-6.88,0-12.08-3.49-15.62-10.47c-3.02-5.52-4.53-12.03-4.53-19.53c0-13.65,3.85-30.31,11.56-50
				c8.54-20.21,16.98-40.47,25.31-60.78c10.83-26.46,17.76-46.72,20.78-60.78c0.21-1.04,0.31-1.98,0.31-2.81
				c0-4.06-2.24-6.09-6.72-6.09h-15.47c-1.88,0-2.81-0.78-2.81-2.34c0-2.08,1.04-3.12,3.12-3.12h44.84c3.44,0,5.16,1.3,5.16,3.91
				C562.24,183.81,562.03,185.06,561.62,186.52z"/>
		</g>
		<g>
			<path class="st4" d="M661.93,250.9l-19.53,55.31c-5.52,15.62-12.87,31.62-22.03,47.97c-13.44,23.54-25.05,35.31-34.84,35.31
				c-5.11,0-7.66-3.12-7.66-9.38c0-3.85,1.93-10.99,5.78-21.41c14.89-39.06,27.55-72.13,37.97-99.22c0.42-1.25,0.62-2.29,0.62-3.12
				c0-3.65-1.77-5.47-5.31-5.47h-42.66c-1.88,0-2.81,0.94-2.81,2.81c0,1.77,1.04,2.66,3.12,2.66h13.12c4.06,0,6.09,2.03,6.09,6.09
				c0,1.25-0.21,2.5-0.62,3.75c-11.25,30.31-19.9,52.81-25.94,67.5c-4.27,11.35-6.41,20.21-6.41,26.56
				c0,23.02,7.71,34.53,23.12,34.53c15.52,0,32.34-19.58,50.47-58.75l-20.16,59.84c-9.38,27.92-10.77,36.91-17.59,46.83
				c-4.97,7.22-15.24,18.08-31.31,16.74c-11.16-0.93-22.27-10.13-24.44-16.33c-0.61-1.73-2.32-8.61-0.76-12.81
				c-3.36,1.77-8.02,2.4-12.08,2.4c-4.39,0-8.85,0.03-12.39-2.02c0.08,9.65,12.65,19.53,21.16,25.66
				c7.71,5.52,18.72,9.97,28.48,10.69c16.74,1.24,27.01-0.46,40.65-13.17c9.59-8.94,14.23-19.45,20.17-30.49
				c3.64-6.67,7.39-15.62,11.25-26.88L686.3,250.9H661.93z"/>
		</g>
		<g>
			<path class="st4" d="M140.79,394.96"/>
		</g>
		<g>
			<path class="st4" d="M156.83,379.27"/>
		</g>
	</g>
</g>
</svg>
